<svg id="Layer_1" data-name="Layer 1" xmlns="http://www.w3.org/2000/svg" xmlns:xlink="http://www.w3.org/1999/xlink" viewBox="0 0 1072.57 632.95"><defs><style>.cls-1{fill:url(#linear-gradient);}.cls-2{fill:#479ad1;}.cls-3{fill:url(#linear-gradient-2);}.cls-4{fill:url(#linear-gradient-3);}.cls-5,.cls-8{fill:#fff;}.cls-5{opacity:0.58;}.cls-6{fill:#66c3d1;}.cls-7{fill:#276d9b;}</style><linearGradient id="linear-gradient" x1="360.2" y1="375.23" x2="930.56" y2="375.23" gradientUnits="userSpaceOnUse"><stop offset="0" stop-color="#a2dae3"/><stop offset="0.17" stop-color="#bae3ea"/><stop offset="0.58" stop-color="#ecf7f9"/><stop offset="0.77" stop-color="#fff"/></linearGradient><linearGradient id="linear-gradient-2" x1="384.09" y1="622.76" x2="826.35" y2="180.51" gradientTransform="translate(-33.49 10.85) rotate(-1.08)" gradientUnits="userSpaceOnUse"><stop offset="0" stop-color="#66c3d1"/><stop offset="0.56" stop-color="#c1e7ec"/></linearGradient><linearGradient id="linear-gradient-3" x1="633.72" y1="496.77" x2="633.72" y2="317.9" gradientUnits="userSpaceOnUse"><stop offset="0" stop-color="#479ad1"/><stop offset="1" stop-color="#276d9b"/></linearGradient></defs><title>Rate limit sign </title><path class="cls-1" d="M391,280.6H772.11A158.45,158.45,0,0,1,930.56,439.05v0a30.79,30.79,0,0,1-30.79,30.79H391a30.79,30.79,0,0,1-30.79-30.79V311.4A30.79,30.79,0,0,1,391,280.6Z"/><path class="cls-2" d="M480.48,373c8.54-31.4,83.12-88.08,111.85-92.41h17.75c-.59,0-3.56.87-4.26,1.07-66.31,18.75-87.91,110.66-85.55,110.42"/><path class="cls-3" d="M141.51,407.33C108.81,287,342,235.32,425.63,266.47c133.91,49.91,130,73.76,226.18,68.59,101.46-5.46,157.24-40.29,225-31.53,48.25,6.25,127.12,40,127,109.23-.29,165.75-187.72,108-390.44,93.31C416.9,491.83,159,471.64,141.51,407.33Z"/><path class="cls-4" d="M627.13,417.64l-25.34-3.05c-9.12-34.51-35-81-57-96.69l.44.23,14.46,5.81a84.15,84.15,0,0,0,11.92,3.78l7.92,1.86c51.42,28.89,114.65,70,143.13,135.59l-23.2,31.6L631,494.48l2.4-63.82"/><path class="cls-5" d="M646.6,477.33l-2-.23,2.61-23c2.67-20.2-5.5-45.2-23-70.4-16.49-23.75-40.11-46.25-63.63-59.44h0l2.87,1.06c1.32.41,1.7.17,2.89.88,22.6,13.43,46.81,33.75,62.52,56.36,17.78,25.61,29.08,51.11,26.35,71.78Z"/><path class="cls-6" d="M387.93,358c132.18,36.4,265,63.82,367.48,86.9,112.84,25.41,188.9,45.56,186.76,66.65-3.53,34.92-172.86.45-565.11,49.66C196.33,583.84,82.47,585.71,46.88,524.94,20.66,480.19,60.93,267.91,387.93,358Z"/><path class="cls-7" d="M286.91,571.22l14.66-21.38c55-68.46,119.13-129.67,193.38-164.16L525.11,393l82.35,19c-53.9,38.17-82.15,61.31-93.85,134.4Z"/><path class="cls-7" d="M716.43,499.42h0a11.42,11.42,0,0,1-13.55,0h0V221h13.55Z"/><rect class="cls-8" x="640.52" y="35.5" width="142.94" height="208.42" rx="8.2"/><path class="cls-7" d="M775.26,42a1.7,1.7,0,0,1,1.7,1.7v192a1.7,1.7,0,0,1-1.7,1.7H648.72a1.7,1.7,0,0,1-1.7-1.7V43.7a1.7,1.7,0,0,1,1.7-1.7H775.26m0-13H648.72A14.7,14.7,0,0,0,634,43.7v192a14.7,14.7,0,0,0,14.7,14.7H775.26a14.7,14.7,0,0,0,14.7-14.7V43.7A14.7,14.7,0,0,0,775.26,29Z"/><path class="cls-8" d="M775.26,36a7.71,7.71,0,0,1,7.7,7.7v192a7.71,7.71,0,0,1-7.7,7.7H648.72a7.71,7.71,0,0,1-7.7-7.7V43.7a7.71,7.71,0,0,1,7.7-7.7H775.26m0-7H648.72A14.7,14.7,0,0,0,634,43.7v192a14.7,14.7,0,0,0,14.7,14.7H775.26a14.7,14.7,0,0,0,14.7-14.7V43.7A14.7,14.7,0,0,0,775.26,29Z"/><path class="cls-7" d="M775.26,29A14.7,14.7,0,0,1,790,43.7v192a14.7,14.7,0,0,1-14.7,14.7H648.72a14.7,14.7,0,0,1-14.7-14.7V43.7A14.7,14.7,0,0,1,648.72,29H775.26m0-2H648.72A16.72,16.72,0,0,0,632,43.7v192a16.72,16.72,0,0,0,16.7,16.7H775.26a16.72,16.72,0,0,0,16.7-16.7V43.7A16.72,16.72,0,0,0,775.26,27Z"/><path class="cls-7" d="M674,83.3h-5.1V59h10c5.6,0,8.81,2.95,8.81,7.76a7.15,7.15,0,0,1-4.42,6.92l5.13,9.67h-5.77l-4.54-8.91H674Zm0-12.6h4.38c2.57,0,4.07-1.47,4.07-3.88s-1.59-3.89-4.12-3.89H674Z"/><path class="cls-7" d="M708.58,77.4H700l-1.85,5.9h-5.24L701.39,59h6l8.47,24.35h-5.41Zm-7.46-3.82h6.36l-3.12-10h-.12Z"/><path class="cls-7" d="M724.32,83.3V63.15h-7V59h19.19v4.2h-7.05V83.3Z"/><path class="cls-7" d="M758.88,83.3H742.74V59h16.14v4.2h-11V69h10.41v3.91H747.84v6.14h11Z"/><path class="cls-7" d="M680.72,116H665V91.69h5.09v20.14h10.65Z"/><path class="cls-7" d="M687.2,116V91.69h5.1V116Z"/><path class="cls-7" d="M721.05,116V99.61h-.14L714.3,116h-3.21l-6.61-16.43h-.14V116H699.8V91.69h5.91l6.92,17.49h.13l6.92-17.49h5.91V116Z"/><path class="cls-7" d="M733.09,116V91.69h5.1V116Z"/><path class="cls-7" d="M751.52,116V95.89h-7v-4.2h19.19v4.2h-7.06V116Z"/><path class="cls-7" d="M676.12,209.9h-2v-9.62h3.94c2.21,0,3.48,1.16,3.48,3.06a2.83,2.83,0,0,1-1.75,2.74l2,3.82h-2.28l-1.79-3.52h-1.62Zm0-5h1.74a1.44,1.44,0,0,0,1.6-1.54,1.47,1.47,0,0,0-1.62-1.53h-1.72Z"/><path class="cls-7" d="M690.31,209.9h-6.38v-9.62h6.38v1.66H686v2.32h4.11v1.54H686v2.43h4.36Z"/><path class="cls-7" d="M692.54,205.08c0-3,1.81-5,4.64-5s4.64,1.89,4.64,5a4.84,4.84,0,0,1-1.63,4l1.31,1.75h-1.87l-.76-1a5,5,0,0,1-1.69.28C694.31,210.07,692.54,208.14,692.54,205.08Zm5.23,3.27-1.2-1.62h1.88l.57.78a3.58,3.58,0,0,0,.78-2.43c0-2-1-3.33-2.62-3.33s-2.61,1.31-2.61,3.33,1,3.35,2.61,3.35A2.21,2.21,0,0,0,697.77,208.35Z"/><path class="cls-7" d="M706.21,206.3a2,2,0,1,0,4,0v-6h2v6.22c0,2.12-1.56,3.57-4,3.57s-4-1.45-4-3.57v-6.22h2Z"/><path class="cls-7" d="M721.32,209.9h-6.38v-9.62h6.38v1.66H717v2.32h4.11v1.54H717v2.43h4.36Z"/><path class="cls-7" d="M725.39,207.15c.13.81.94,1.29,2,1.29s1.81-.52,1.81-1.23-.45-1-1.66-1.24l-1-.2c-1.92-.38-2.86-1.3-2.86-2.73,0-1.76,1.53-2.93,3.67-2.93s3.66,1.17,3.69,2.94h-1.9c-.06-.82-.78-1.31-1.79-1.31s-1.66.46-1.66,1.17.47,1,1.6,1.19l1,.2c2,.41,2.92,1.23,2.92,2.69,0,1.88-1.47,3.08-3.88,3.08s-3.82-1.1-3.88-2.92Z"/><path class="cls-7" d="M735.86,209.9v-8h-2.78v-1.66h7.58v1.66h-2.79v8Z"/><path class="cls-7" d="M744.39,207.15c.13.81.94,1.29,2,1.29s1.8-.52,1.8-1.23-.45-1-1.66-1.24l-1-.2c-1.92-.38-2.86-1.3-2.86-2.73,0-1.76,1.53-2.93,3.67-2.93s3.66,1.17,3.7,2.94h-1.9c-.07-.82-.78-1.31-1.8-1.31s-1.66.46-1.66,1.17.47,1,1.6,1.19l1,.2c2,.41,2.92,1.23,2.92,2.69,0,1.88-1.47,3.08-3.88,3.08s-3.82-1.1-3.88-2.92Z"/><path class="cls-7" d="M672.55,216.65a3.14,3.14,0,0,1,3.33,3.29,3.2,3.2,0,0,1-3.43,3.3h-1.8v3h-2v-9.62Zm-1.9,5H672a1.71,1.71,0,1,0,0-3.42h-1.36Z"/><path class="cls-7" d="M684.53,226.27h-6.38v-9.62h6.38v1.66h-4.36v2.32h4.11v1.55h-4.11v2.42h4.36Z"/><path class="cls-7" d="M689.08,226.27h-2v-9.62H691c2.22,0,3.48,1.16,3.48,3.06a2.83,2.83,0,0,1-1.74,2.74l2,3.82h-2.29l-1.79-3.52h-1.61Zm0-5h1.73a1.45,1.45,0,0,0,1.61-1.54,1.48,1.48,0,0,0-1.63-1.53h-1.71Z"/><path class="cls-7" d="M709.07,226.27v-6.5H709l-2.61,6.5h-1.27l-2.62-6.5h0v6.5h-1.79v-9.62H703l2.74,6.91h0l2.73-6.91h2.34v9.62Z"/><path class="cls-7" d="M713.55,226.27v-9.62h2v9.62Z"/><path class="cls-7" d="M718.25,226.27v-9.62h1.68l4.49,6.27h.06v-6.27h1.92v9.62h-1.66l-4.51-6.3h-.05v6.3Z"/><path class="cls-7" d="M731.1,222.67a2,2,0,1,0,4,0v-6h2v6.22c0,2.12-1.57,3.57-4,3.57s-4-1.45-4-3.57v-6.22h2Z"/><path class="cls-7" d="M742.13,226.27v-8h-2.78v-1.66h7.58v1.66h-2.79v8Z"/><path class="cls-7" d="M755.5,226.27h-6.37v-9.62h6.37v1.66h-4.36v2.32h4.11v1.55h-4.11v2.42h4.36Z"/><path class="cls-7" d="M693.68,143v-.28H665.85v-11h41.93v11.06l-22.7,45.33h-15Z"/><path class="cls-7" d="M716.5,171.53h13c.71,4.26,4.38,7,9.11,7,5.47,0,9.18-3.71,9.18-9s-3.75-9-9.18-9a9.64,9.64,0,0,0-8.76,4.85H717.44l2.42-33.61H757.8v11H731.15L730,157h.27c2.23-3.79,6.84-6.25,12.7-6.25,10.67,0,18.33,7.7,18.33,18.37,0,12.19-9.14,20.4-22.7,20.4C725.84,189.51,716.69,182.08,716.5,171.53Z"/><path class="cls-5" d="M405.05,566.15l-15.4-2.84a361.69,361.69,0,0,1,51.48-82.56c40.74-49.53,83.38-72.94,105-82.95.38-.18.91.14,1.56.31,1,.26,2.08.49,2.08.49l5.49,1.31a40.46,40.46,0,0,1-3.12,2.82l3.12-2.82c-20.25,11-60.08,34.71-101.7,85.29C434,508.92,418.36,536.16,405.05,566.15ZM549.48,398.53"/></svg>